/vscmnt/brussel_pixiu_data/_data_brussel/112/vsc11236/PredSimResults/SUBJ06_gait1422_tracking/SUBJ06_gait1422_11448691.mot
version=1
nRows=4
nColumns=50
inDegrees=yes
endheader
                time	         pelvis_tilt	         pelvis_list	     pelvis_rotation	           pelvis_tx	           pelvis_ty	           pelvis_tz	       hip_flexion_r	     hip_adduction_r	      hip_rotation_r	        knee_angle_r	       ankle_angle_r	         mtp_angle_r	       hip_flexion_l	     hip_adduction_l	      hip_rotation_l	        knee_angle_l	       ankle_angle_l	         mtp_angle_l	    lumbar_extension	      lumbar_bending	     lumbar_rotation	 ercspn_r/activation	 intobl_r/activation	 extobl_r/activation	    abd_r/activation	    add_r/activation	hamstrings_r/activation	bifemsh_r/activation	glut_max_r/activation	iliopsoas_r/activation	rect_fem_r/activation	  vasti_r/activation	gastroc_r/activation	 soleus_r/activation	tib_ant_r/activation	 ercspn_l/activation	 intobl_l/activation	 extobl_l/activation	    abd_l/activation	    add_l/activation	hamstrings_l/activation	bifemsh_l/activation	glut_max_l/activation	iliopsoas_l/activation	rect_fem_l/activation	  vasti_l/activation	gastroc_l/activation	 soleus_l/activation	tib_ant_l/activation	
          0.57318273	         -5.02733376	         -3.72436986	         -8.43809526	          0.60806194	          0.92315070	          0.00861268	         -5.29638517	          5.27756467	        -10.38977155	        -18.19540736	         16.67495685	         25.39799680	         34.00803652	         -9.26883389	        -24.74984626	         -8.05554115	         -3.97276743	          0.27635991	         -4.01623969	          2.33895788	         14.88980951	          0.06448596	          0.01922778	          0.02343229	          0.16171826	          0.01000098	          0.01000116	          0.13379000	          0.01191663	          0.06658203	          0.32623944	          0.01191083	          0.56454733	          0.53032229	          0.04658859	          0.10207224	          0.06584811	          0.02132059	          0.02995262	          0.01397175	          0.01901989	          0.17621242	          0.03900386	          0.12179951	          0.04611810	          0.01419039	          0.01191179	          0.01319696	          0.09296721	
          0.58464638	         -5.03306026	         -3.30766585	         -8.51227888	          0.62241079	          0.92303331	          0.00731474	         -5.55295987	          4.47392618	        -10.65895085	        -19.11321226	         15.48823126	         27.72593920	         33.57951080	         -8.86790635	        -24.69754687	         -8.31161678	         -5.94055129	          0.25187810	         -3.92196492	          1.87352491	         14.69828094	          0.05414206	          0.01614360	          0.01967364	          0.13577691	          0.01000050	          0.01506916	          0.20020686	          0.01000724	          0.07211672	          0.41217675	          0.01000020	          0.56185980	          0.59357025	          0.03911521	          0.08569999	          0.05528746	          0.01790137	          0.02514811	          0.03882723	          0.03336950	          0.31674483	          0.03274784	          0.10226190	          0.03872037	          0.01191435	          0.01000243	          0.01108056	          0.10108393	
          0.59611004	         -5.03712317	         -2.84835036	         -8.58536215	          0.63745190	          0.92313845	          0.00584926	         -5.68719501	          3.57513895	        -10.93209493	        -20.26367706	         14.04231823	         30.26595391	         32.92687220	         -8.35911744	        -24.63275817	         -8.50002840	         -7.36121878	          0.21107995	         -3.72771367	          1.37987639	         14.48163951	          0.04545723	          0.01355416	          0.01651794	          0.11399669	          0.01003868	          0.01265194	          0.16809134	          0.01004412	          0.06054933	          0.48826805	          0.11593448	          0.55277319	          0.59234281	          0.03284065	          0.07195352	          0.10794906	          0.01503098	          0.02111413	          0.03698464	          0.02801733	          0.55876968	          0.02749489	          0.12446572	          0.03250931	          0.01000325	          0.01419759	          0.01418608	          0.08565065	
          0.60757369	         -5.04142136	         -2.39691029	         -8.63030050	          0.65326534	          0.92344744	          0.00427995	         -5.97333938	          2.69537888	        -11.09940754	        -21.12957430	         12.27228658	         32.92611406	         32.15283282	         -7.81267605	        -24.64505621	         -8.84243415	         -7.99469980	          0.11903419	         -3.43431307	          0.89904029	         14.23648388	          0.03816545	          0.01138129	          0.01386921	          0.09571033	          0.01000110	          0.01910738	          0.14112999	          0.01000117	          0.08822778	          0.40994414	          0.09733717	          0.53805128	          0.57111147	          0.02757261	          0.06041147	          0.16504681	          0.04053919	          0.01772731	          0.03105201	          0.02352314	          0.46914280	          0.02308455	          0.14416868	          0.02729470	          0.01000018	          0.01192018	          0.01191051	          0.23113474	
